<svg width="15" height="15" viewBox="0 0 15 15" fill="none" xmlns="http://www.w3.org/2000/svg">
<path d="M10.335 15V9.195H12.2792L12.57 6.93833H10.335V5.49833C10.335 4.845 10.5167 4.39917 11.4533 4.39917H12.6483V2.38083C12.0698 2.31945 11.4884 2.28969 10.9067 2.29167C9.18417 2.29167 8.005 3.34333 8.005 5.275V6.93833H6.05667V9.195H8.005V15H0.833333C0.61232 15 0.400358 14.9122 0.244078 14.7559C0.0877973 14.5996 0 14.3877 0 14.1667V0.833333C0 0.61232 0.0877973 0.400358 0.244078 0.244078C0.400358 0.0877973 0.61232 0 0.833333 0H14.1667C14.3877 0 14.5996 0.0877973 14.7559 0.244078C14.9122 0.400358 15 0.61232 15 0.833333V14.1667C15 14.3877 14.9122 14.5996 14.7559 14.7559C14.5996 14.9122 14.3877 15 14.1667 15H10.335Z" fill="white"/>
</svg>
