<svg width="17" height="11" viewBox="0 0 17 11" fill="none" xmlns="http://www.w3.org/2000/svg">
<path d="M16.644 1.7259C16.5478 1.39283 16.3603 1.09128 16.1015 0.853317C15.8354 0.608034 15.5093 0.432578 15.1539 0.343508C13.8238 0.00340705 8.49504 0.00340712 8.49504 0.00340712C6.27354 -0.0211127 4.05257 0.0867316 1.84469 0.326332C1.48929 0.421981 1.16376 0.601358 0.897067 0.848508C0.635018 1.09311 0.445211 1.39473 0.346057 1.72521C0.107872 2.97001 -0.00785493 4.23396 0.000437113 5.5C-0.00806174 6.7649 0.107381 8.02843 0.346057 9.27478C0.443086 9.60389 0.632185 9.90414 0.894942 10.1467C1.1577 10.3892 1.4849 10.5644 1.84469 10.6572C3.19247 10.9966 8.49504 10.9966 8.49504 10.9966C10.7194 11.0211 12.9432 10.9133 15.1539 10.6737C15.5093 10.5846 15.8354 10.4091 16.1015 10.1639C16.3602 9.92593 16.5475 9.62435 16.6433 9.29127C16.8877 8.04695 17.0066 6.78248 16.9982 5.5158C17.0165 4.24375 16.8978 2.97333 16.644 1.72521V1.7259ZM6.80094 7.85254V3.14814L11.2345 5.50068L6.80094 7.85254Z" fill="white"/>
</svg>
